<svg class="main-svg" xmlns="http://www.w3.org/2000/svg" xmlns:xlink="http://www.w3.org/1999/xlink" width="800" height="600" viewBox="0 0 800 600"><rect x="0" y="0" width="800" height="600" style="fill: rgb(255, 255, 255); fill-opacity: 1;"/><defs id="defs-b2e0e0"><g class="clips"><clipPath id="clipb2e0e0xyplot" class="plotclip"><rect width="640" height="420"/></clipPath><clipPath class="axesclip" id="clipb2e0e0x"><rect x="80" y="0" width="640" height="600"/></clipPath><clipPath class="axesclip" id="clipb2e0e0y"><rect x="0" y="100" width="800" height="420"/></clipPath><clipPath class="axesclip" id="clipb2e0e0xy"><rect x="80" y="100" width="640" height="420"/></clipPath></g><g class="gradients"/></defs><g class="bglayer"><rect class="bg" x="80" y="100" width="640" height="420" style="fill: rgb(255, 255, 255); fill-opacity: 1; stroke-width: 0;"/></g><g class="layer-below"><g class="imagelayer"/><g class="shapelayer"/></g><g class="cartesianlayer"><g class="subplot xy"><g class="layer-subplot"><g class="shapelayer"/><g class="imagelayer"/></g><g class="gridlayer"><g class="x"><path class="xgrid crisp" d="M0,100v420" transform="translate(228.78,0)" style="stroke: rgb(238, 238, 238); stroke-opacity: 1; stroke-width: 1px;"/><path class="xgrid crisp" d="M0,100v420" transform="translate(341.55,0)" style="stroke: rgb(238, 238, 238); stroke-opacity: 1; stroke-width: 1px;"/><path class="xgrid crisp" d="M0,100v420" transform="translate(454.32,0)" style="stroke: rgb(238, 238, 238); stroke-opacity: 1; stroke-width: 1px;"/><path class="xgrid crisp" d="M0,100v420" transform="translate(567.0899999999999,0)" style="stroke: rgb(238, 238, 238); stroke-opacity: 1; stroke-width: 1px;"/><path class="xgrid crisp" d="M0,100v420" transform="translate(679.86,0)" style="stroke: rgb(238, 238, 238); stroke-opacity: 1; stroke-width: 1px;"/></g><g class="y"><path class="ygrid crisp" d="M80,0h640" transform="translate(0,420.76)" style="stroke: rgb(238, 238, 238); stroke-opacity: 1; stroke-width: 1px;"/><path class="ygrid crisp" d="M80,0h640" transform="translate(0,347.34000000000003)" style="stroke: rgb(238, 238, 238); stroke-opacity: 1; stroke-width: 1px;"/><path class="ygrid crisp" d="M80,0h640" transform="translate(0,273.91999999999996)" style="stroke: rgb(238, 238, 238); stroke-opacity: 1; stroke-width: 1px;"/><path class="ygrid crisp" d="M80,0h640" transform="translate(0,200.5)" style="stroke: rgb(238, 238, 238); stroke-opacity: 1; stroke-width: 1px;"/><path class="ygrid crisp" d="M80,0h640" transform="translate(0,127.09)" style="stroke: rgb(238, 238, 238); stroke-opacity: 1; stroke-width: 1px;"/></g></g><g class="zerolinelayer"><path class="xzl zl crisp" d="M0,100v420" transform="translate(116.00999999999999,0)" style="stroke: rgb(68, 68, 68); stroke-opacity: 1; stroke-width: 1px;"/><path class="yzl zl crisp" d="M80,0h640" transform="translate(0,494.17)" style="stroke: rgb(68, 68, 68); stroke-opacity: 1; stroke-width: 1px;"/></g><path class="xlines-below"/><path class="ylines-below"/><g class="overlines-below"/><g class="xaxislayer-below"/><g class="yaxislayer-below"/><g class="overaxes-below"/><g class="plot" transform="translate(80, 100)" clip-path="url(#clipb2e0e0xyplot)"><g class="scatterlayer mlayer"><g class="trace scatter tracefbe15794-d229-11e8-9aae-34e6ad7a530a" style="stroke-miterlimit: 2; opacity: 1;"><g class="fills"/><g class="errorbars"/><g class="lines"/><g class="points"><path class="point" transform="translate(573.8,337.62)" d="M6.6,0A6.6,6.6 0 1,1 0,-6.6A6.6,6.6 0 0,1 6.6,0Z" style="opacity: 0.6; stroke-width: 1px; fill: rgb(155, 216, 60); fill-opacity: 1; stroke: rgb(255, 255, 255); stroke-opacity: 1;"/><path class="point" transform="translate(345.71,246.03)" d="M11.06,0A11.06,11.06 0 1,1 0,-11.06A11.06,11.06 0 0,1 11.06,0Z" style="opacity: 0.6; stroke-width: 1px; fill: rgb(37, 132, 142); fill-opacity: 1; stroke: rgb(255, 255, 255); stroke-opacity: 1;"/><path class="point" transform="translate(410.31,385.99)" d="M10.41,0A10.41,10.41 0 1,1 0,-10.41A10.41,10.41 0 0,1 10.41,0Z" style="opacity: 0.6; stroke-width: 1px; fill: rgb(102, 203, 93); fill-opacity: 1; stroke: rgb(255, 255, 255); stroke-opacity: 1;"/><path class="point" transform="translate(190.92,352.74)" d="M3.68,0A3.68,3.68 0 1,1 0,-3.68A3.68,3.68 0 0,1 3.68,0Z" style="opacity: 0.6; stroke-width: 1px; fill: rgb(53, 94, 140); fill-opacity: 1; stroke: rgb(255, 255, 255); stroke-opacity: 1;"/><path class="point" transform="translate(428.03,322.51)" d="M6.58,0A6.58,6.58 0 1,1 0,-6.58A6.58,6.58 0 0,1 6.58,0Z" style="opacity: 0.6; stroke-width: 1px; fill: rgb(31, 161, 136); fill-opacity: 1; stroke: rgb(255, 255, 255); stroke-opacity: 1;"/><path class="point" transform="translate(299.18,257.79)" d="M11.17,0A11.17,11.17 0 1,1 0,-11.17A11.17,11.17 0 0,1 11.17,0Z" style="opacity: 0.6; stroke-width: 1px; fill: rgb(46, 110, 142); fill-opacity: 1; stroke: rgb(255, 255, 255); stroke-opacity: 1;"/><path class="point" transform="translate(66.11,380.65)" d="M5.47,0A5.47,5.47 0 1,1 0,-5.47A5.47,5.47 0 0,1 5.47,0Z" style="opacity: 0.6; stroke-width: 1px; fill: rgb(57, 86, 139); fill-opacity: 1; stroke: rgb(255, 255, 255); stroke-opacity: 1;"/><path class="point" transform="translate(99.68,199.93)" d="M12.29,0A12.29,12.29 0 1,1 0,-12.29A12.29,12.29 0 0,1 12.29,0Z" style="opacity: 0.6; stroke-width: 1px; fill: rgb(245, 230, 34); fill-opacity: 1; stroke: rgb(255, 255, 255); stroke-opacity: 1;"/><path class="point" transform="translate(83.24,72.33)" d="M7.79,0A7.79,7.79 0 1,1 0,-7.79A7.79,7.79 0 0,1 7.79,0Z" style="opacity: 0.6; stroke-width: 1px; fill: rgb(59, 81, 139); fill-opacity: 1; stroke: rgb(255, 255, 255); stroke-opacity: 1;"/><path class="point" transform="translate(453.28,169.52)" d="M11.1,0A11.1,11.1 0 1,1 0,-11.1A11.1,11.1 0 0,1 11.1,0Z" style="opacity: 0.6; stroke-width: 1px; fill: rgb(53, 94, 140); fill-opacity: 1; stroke: rgb(255, 255, 255); stroke-opacity: 1;"/><path class="point" transform="translate(495.79,204.11)" d="M12.81,0A12.81,12.81 0 1,1 0,-12.81A12.81,12.81 0 0,1 12.81,0Z" style="opacity: 0.6; stroke-width: 1px; fill: rgb(72, 27, 109); fill-opacity: 1; stroke: rgb(255, 255, 255); stroke-opacity: 1;"/><path class="point" transform="translate(578.2,229.77)" d="M7.54,0A7.54,7.54 0 1,1 0,-7.54A7.54,7.54 0 0,1 7.54,0Z" style="opacity: 0.6; stroke-width: 1px; fill: rgb(72, 27, 108); fill-opacity: 1; stroke: rgb(255, 255, 255); stroke-opacity: 1;"/><path class="point" transform="translate(198.21,316.22)" d="M2.66,0A2.66,2.66 0 1,1 0,-2.66A2.66,2.66 0 0,1 2.66,0Z" style="opacity: 0.6; stroke-width: 1px; fill: rgb(69, 191, 112); fill-opacity: 1; stroke: rgb(255, 255, 255); stroke-opacity: 1;"/><path class="point" transform="translate(279.99,41.27)" d="M5.65,0A5.65,5.65 0 1,1 0,-5.65A5.65,5.65 0 0,1 5.65,0Z" style="opacity: 0.6; stroke-width: 1px; fill: rgb(68, 1, 84); fill-opacity: 1; stroke: rgb(255, 255, 255); stroke-opacity: 1;"/><path class="point" transform="translate(334.32,275.48)" d="M13.5,0A13.5,13.5 0 1,1 0,-13.5A13.5,13.5 0 0,1 13.5,0Z" style="opacity: 0.6; stroke-width: 1px; fill: rgb(36, 136, 141); fill-opacity: 1; stroke: rgb(255, 255, 255); stroke-opacity: 1;"/><path class="point" transform="translate(354.54,310.93)" d="M0.9,0A0.9,0.9 0 1,1 0,-0.9A0.9,0.9 0 0,1 0.9,0Z" style="opacity: 0.6; stroke-width: 1px; fill: rgb(34, 165, 133); fill-opacity: 1; stroke: rgb(255, 255, 255); stroke-opacity: 1;"/><path class="point" transform="translate(239.26,338.35)" d="M13.15,0A13.15,13.15 0 1,1 0,-13.15A13.15,13.15 0 0,1 13.15,0Z" style="opacity: 0.6; stroke-width: 1px; fill: rgb(33, 146, 140); fill-opacity: 1; stroke: rgb(255, 255, 255); stroke-opacity: 1;"/><path class="point" transform="translate(333.28,297.57)" d="M1.41,0A1.41,1.41 0 1,1 0,-1.41A1.41,1.41 0 0,1 1.41,0Z" style="opacity: 0.6; stroke-width: 1px; fill: rgb(56, 88, 140); fill-opacity: 1; stroke: rgb(255, 255, 255); stroke-opacity: 1;"/><path class="point" transform="translate(137.41,283.11)" d="M5.71,0A5.71,5.71 0 1,1 0,-5.71A5.71,5.71 0 0,1 5.71,0Z" style="opacity: 0.6; stroke-width: 1px; fill: rgb(55, 91, 140); fill-opacity: 1; stroke: rgb(255, 255, 255); stroke-opacity: 1;"/><path class="point" transform="translate(279.82,345.14)" d="M10.81,0A10.81,10.81 0 1,1 0,-10.81A10.81,10.81 0 0,1 10.81,0Z" style="opacity: 0.6; stroke-width: 1px; fill: rgb(70, 11, 94); fill-opacity: 1; stroke: rgb(255, 255, 255); stroke-opacity: 1;"/><path class="point" transform="translate(207.36,48.61)" d="M0.63,0A0.63,0.63 0 1,1 0,-0.63A0.63,0.63 0 0,1 0.63,0Z" style="opacity: 0.6; stroke-width: 1px; fill: rgb(62, 73, 137); fill-opacity: 1; stroke: rgb(255, 255, 255); stroke-opacity: 1;"/><path class="point" transform="translate(538.77,159.61)" d="M0.33,0A0.33,0.33 0 1,1 0,-0.33A0.33,0.33 0 0,1 0.33,0Z" style="opacity: 0.6; stroke-width: 1px; fill: rgb(50, 102, 141); fill-opacity: 1; stroke: rgb(255, 255, 255); stroke-opacity: 1;"/><path class="point" transform="translate(514.23,371.29)" d="M14.93,0A14.93,14.93 0 1,1 0,-14.93A14.93,14.93 0 0,1 14.93,0Z" style="opacity: 0.6; stroke-width: 1px; fill: rgb(55, 91, 140); fill-opacity: 1; stroke: rgb(255, 255, 255); stroke-opacity: 1;"/><path class="point" transform="translate(502.45,237.36)" d="M8.92,0A8.92,8.92 0 1,1 0,-8.92A8.92,8.92 0 0,1 8.92,0Z" style="opacity: 0.6; stroke-width: 1px; fill: rgb(45, 111, 142); fill-opacity: 1; stroke: rgb(255, 255, 255); stroke-opacity: 1;"/><path class="point" transform="translate(128.17,268.83)" d="M14.42,0A14.42,14.42 0 1,1 0,-14.42A14.42,14.42 0 0,1 14.42,0Z" style="opacity: 0.6; stroke-width: 1px; fill: rgb(173, 220, 48); fill-opacity: 1; stroke: rgb(255, 255, 255); stroke-opacity: 1;"/><path class="point" transform="translate(471.87,46.13)" d="M1.2,0A1.2,1.2 0 1,1 0,-1.2A1.2,1.2 0 0,1 1.2,0Z" style="opacity: 0.6; stroke-width: 1px; fill: rgb(151, 216, 62); fill-opacity: 1; stroke: rgb(255, 255, 255); stroke-opacity: 1;"/><path class="point" transform="translate(199.12,32.43)" d="M4.53,0A4.53,4.53 0 1,1 0,-4.53A4.53,4.53 0 0,1 4.53,0Z" style="opacity: 0.6; stroke-width: 1px; fill: rgb(71, 20, 102); fill-opacity: 1; stroke: rgb(255, 255, 255); stroke-opacity: 1;"/><path class="point" transform="translate(525.04,355.91)" d="M7.06,0A7.06,7.06 0 1,1 0,-7.06A7.06,7.06 0 0,1 7.06,0Z" style="opacity: 0.6; stroke-width: 1px; fill: rgb(36, 136, 141); fill-opacity: 1; stroke: rgb(255, 255, 255); stroke-opacity: 1;"/><path class="point" transform="translate(411.29,118.18)" d="M9.48,0A9.48,9.48 0 1,1 0,-9.48A9.48,9.48 0 0,1 9.48,0Z" style="opacity: 0.6; stroke-width: 1px; fill: rgb(58, 83, 139); fill-opacity: 1; stroke: rgb(255, 255, 255); stroke-opacity: 1;"/><path class="point" transform="translate(101.93,110.22)" d="M13.32,0A13.32,13.32 0 1,1 0,-13.32A13.32,13.32 0 0,1 13.32,0Z" style="opacity: 0.6; stroke-width: 1px; fill: rgb(40, 174, 128); fill-opacity: 1; stroke: rgb(255, 255, 255); stroke-opacity: 1;"/><path class="point" transform="translate(37.08,111.57)" d="M4.07,0A4.07,4.07 0 1,1 0,-4.07A4.07,4.07 0 0,1 4.07,0Z" style="opacity: 0.6; stroke-width: 1px; fill: rgb(66, 65, 134); fill-opacity: 1; stroke: rgb(255, 255, 255); stroke-opacity: 1;"/><path class="point" transform="translate(332.81,227.17)" d="M4.29,0A4.29,4.29 0 1,1 0,-4.29A4.29,4.29 0 0,1 4.29,0Z" style="opacity: 0.6; stroke-width: 1px; fill: rgb(59, 83, 139); fill-opacity: 1; stroke: rgb(255, 255, 255); stroke-opacity: 1;"/><path class="point" transform="translate(476.32,359.28)" d="M2.49,0A2.49,2.49 0 1,1 0,-2.49A2.49,2.49 0 0,1 2.49,0Z" style="opacity: 0.6; stroke-width: 1px; fill: rgb(68, 190, 112); fill-opacity: 1; stroke: rgb(255, 255, 255); stroke-opacity: 1;"/><path class="point" transform="translate(589.37,236.57)" d="M8.58,0A8.58,8.58 0 1,1 0,-8.58A8.58,8.58 0 0,1 8.58,0Z" style="opacity: 0.6; stroke-width: 1px; fill: rgb(95, 201, 98); fill-opacity: 1; stroke: rgb(255, 255, 255); stroke-opacity: 1;"/><path class="point" transform="translate(191.37,294.22)" d="M7.88,0A7.88,7.88 0 1,1 0,-7.88A7.88,7.88 0 0,1 7.88,0Z" style="opacity: 0.6; stroke-width: 1px; fill: rgb(64, 69, 135); fill-opacity: 1; stroke: rgb(255, 255, 255); stroke-opacity: 1;"/><path class="point" transform="translate(312.18,190.17)" d="M4.38,0A4.38,4.38 0 1,1 0,-4.38A4.38,4.38 0 0,1 4.38,0Z" style="opacity: 0.6; stroke-width: 1px; fill: rgb(63, 72, 136); fill-opacity: 1; stroke: rgb(255, 255, 255); stroke-opacity: 1;"/><path class="point" transform="translate(142.48,185.2)" d="M13.22,0A13.22,13.22 0 1,1 0,-13.22A13.22,13.22 0 0,1 13.22,0Z" style="opacity: 0.6; stroke-width: 1px; fill: rgb(71, 40, 119); fill-opacity: 1; stroke: rgb(255, 255, 255); stroke-opacity: 1;"/><path class="point" transform="translate(570.07,220.77)" d="M11.36,0A11.36,11.36 0 1,1 0,-11.36A11.36,11.36 0 0,1 11.36,0Z" style="opacity: 0.6; stroke-width: 1px; fill: rgb(32, 149, 139); fill-opacity: 1; stroke: rgb(255, 255, 255); stroke-opacity: 1;"/><path class="point" transform="translate(166.95,59.71)" d="M8.93,0A8.93,8.93 0 1,1 0,-8.93A8.93,8.93 0 0,1 8.93,0Z" style="opacity: 0.6; stroke-width: 1px; fill: rgb(196, 223, 36); fill-opacity: 1; stroke: rgb(255, 255, 255); stroke-opacity: 1;"/><path class="point" transform="translate(169.11,92.54)" d="M1.88,0A1.88,1.88 0 1,1 0,-1.88A1.88,1.88 0 0,1 1.88,0Z" style="opacity: 0.6; stroke-width: 1px; fill: rgb(32, 150, 139); fill-opacity: 1; stroke: rgb(255, 255, 255); stroke-opacity: 1;"/><path class="point" transform="translate(358.25,262.16)" d="M5.72,0A5.72,5.72 0 1,1 0,-5.72A5.72,5.72 0 0,1 5.72,0Z" style="opacity: 0.6; stroke-width: 1px; fill: rgb(122, 209, 81); fill-opacity: 1; stroke: rgb(255, 255, 255); stroke-opacity: 1;"/><path class="point" transform="translate(122.05,216.43)" d="M8.59,0A8.59,8.59 0 1,1 0,-8.59A8.59,8.59 0 0,1 8.59,0Z" style="opacity: 0.6; stroke-width: 1px; fill: rgb(44, 114, 142); fill-opacity: 1; stroke: rgb(255, 255, 255); stroke-opacity: 1;"/><path class="point" transform="translate(258.92,295.32)" d="M4.4,0A4.4,4.4 0 1,1 0,-4.4A4.4,4.4 0 0,1 4.4,0Z" style="opacity: 0.6; stroke-width: 1px; fill: rgb(58, 185, 118); fill-opacity: 1; stroke: rgb(255, 255, 255); stroke-opacity: 1;"/><path class="point" transform="translate(378.29,221.09)" d="M2.07,0A2.07,2.07 0 1,1 0,-2.07A2.07,2.07 0 0,1 2.07,0Z" style="opacity: 0.6; stroke-width: 1px; fill: rgb(64, 70, 136); fill-opacity: 1; stroke: rgb(255, 255, 255); stroke-opacity: 1;"/><path class="point" transform="translate(535.14,239.12)" d="M4.8,0A4.8,4.8 0 1,1 0,-4.8A4.8,4.8 0 0,1 4.8,0Z" style="opacity: 0.6; stroke-width: 1px; fill: rgb(120, 208, 82); fill-opacity: 1; stroke: rgb(255, 255, 255); stroke-opacity: 1;"/><path class="point" transform="translate(268.61,218.89)" d="M8.19,0A8.19,8.19 0 1,1 0,-8.19A8.19,8.19 0 0,1 8.19,0Z" style="opacity: 0.6; stroke-width: 1px; fill: rgb(243, 230, 34); fill-opacity: 1; stroke: rgb(255, 255, 255); stroke-opacity: 1;"/><path class="point" transform="translate(591,173.74)" d="M13.6,0A13.6,13.6 0 1,1 0,-13.6A13.6,13.6 0 0,1 13.6,0Z" style="opacity: 0.6; stroke-width: 1px; fill: rgb(36, 136, 141); fill-opacity: 1; stroke: rgb(255, 255, 255); stroke-opacity: 1;"/><path class="point" transform="translate(413.38,295.5)" d="M12.04,0A12.04,12.04 0 1,1 0,-12.04A12.04,12.04 0 0,1 12.04,0Z" style="opacity: 0.6; stroke-width: 1px; fill: rgb(124, 210, 80); fill-opacity: 1; stroke: rgb(255, 255, 255); stroke-opacity: 1;"/><path class="point" transform="translate(576.48,66.85)" d="M1.17,0A1.17,1.17 0 1,1 0,-1.17A1.17,1.17 0 0,1 1.17,0Z" style="opacity: 0.6; stroke-width: 1px; fill: rgb(50, 101, 141); fill-opacity: 1; stroke: rgb(255, 255, 255); stroke-opacity: 1;"/><path class="point" transform="translate(343.65,67.12)" d="M10.74,0A10.74,10.74 0 1,1 0,-10.74A10.74,10.74 0 0,1 10.74,0Z" style="opacity: 0.6; stroke-width: 1px; fill: rgb(63, 71, 136); fill-opacity: 1; stroke: rgb(255, 255, 255); stroke-opacity: 1;"/><path class="point" transform="translate(457.81,263.97)" d="M6.94,0A6.94,6.94 0 1,1 0,-6.94A6.94,6.94 0 0,1 6.94,0Z" style="opacity: 0.6; stroke-width: 1px; fill: rgb(241, 229, 33); fill-opacity: 1; stroke: rgb(255, 255, 255); stroke-opacity: 1;"/><path class="point" transform="translate(404.11,109.32)" d="M7.43,0A7.43,7.43 0 1,1 0,-7.43A7.43,7.43 0 0,1 7.43,0Z" style="opacity: 0.6; stroke-width: 1px; fill: rgb(46, 110, 142); fill-opacity: 1; stroke: rgb(255, 255, 255); stroke-opacity: 1;"/><path class="point" transform="translate(122.88,279.96)" d="M4.14,0A4.14,4.14 0 1,1 0,-4.14A4.14,4.14 0 0,1 4.14,0Z" style="opacity: 0.6; stroke-width: 1px; fill: rgb(36, 135, 141); fill-opacity: 1; stroke: rgb(255, 255, 255); stroke-opacity: 1;"/><path class="point" transform="translate(167.58,287.32)" d="M5.93,0A5.93,5.93 0 1,1 0,-5.93A5.93,5.93 0 0,1 5.93,0Z" style="opacity: 0.6; stroke-width: 1px; fill: rgb(32, 161, 135); fill-opacity: 1; stroke: rgb(255, 255, 255); stroke-opacity: 1;"/><path class="point" transform="translate(583.7,149.36)" d="M13.65,0A13.65,13.65 0 1,1 0,-13.65A13.65,13.65 0 0,1 13.65,0Z" style="opacity: 0.6; stroke-width: 1px; fill: rgb(176, 220, 46); fill-opacity: 1; stroke: rgb(255, 255, 255); stroke-opacity: 1;"/><path class="point" transform="translate(369.26,150.02)" d="M7.02,0A7.02,7.02 0 1,1 0,-7.02A7.02,7.02 0 0,1 7.02,0Z" style="opacity: 0.6; stroke-width: 1px; fill: rgb(69, 54, 128); fill-opacity: 1; stroke: rgb(255, 255, 255); stroke-opacity: 1;"/><path class="point" transform="translate(598.28,191.51)" d="M2.58,0A2.58,2.58 0 1,1 0,-2.58A2.58,2.58 0 0,1 2.58,0Z" style="opacity: 0.6; stroke-width: 1px; fill: rgb(32, 153, 138); fill-opacity: 1; stroke: rgb(255, 255, 255); stroke-opacity: 1;"/><path class="point" transform="translate(350.4,382.64)" d="M8.73,0A8.73,8.73 0 1,1 0,-8.73A8.73,8.73 0 0,1 8.73,0Z" style="opacity: 0.6; stroke-width: 1px; fill: rgb(71, 17, 99); fill-opacity: 1; stroke: rgb(255, 255, 255); stroke-opacity: 1;"/><path class="point" transform="translate(293.6,102.17)" d="M13.23,0A13.23,13.23 0 1,1 0,-13.23A13.23,13.23 0 0,1 13.23,0Z" style="opacity: 0.6; stroke-width: 1px; fill: rgb(54, 92, 140); fill-opacity: 1; stroke: rgb(255, 255, 255); stroke-opacity: 1;"/><path class="point" transform="translate(356.37,259.7)" d="M3.05,0A3.05,3.05 0 1,1 0,-3.05A3.05,3.05 0 0,1 3.05,0Z" style="opacity: 0.6; stroke-width: 1px; fill: rgb(253, 231, 37); fill-opacity: 1; stroke: rgb(255, 255, 255); stroke-opacity: 1;"/><path class="point" transform="translate(363.35,218.76)" d="M2.03,0A2.03,2.03 0 1,1 0,-2.03A2.03,2.03 0 0,1 2.03,0Z" style="opacity: 0.6; stroke-width: 1px; fill: rgb(118, 208, 83); fill-opacity: 1; stroke: rgb(255, 255, 255); stroke-opacity: 1;"/><path class="point" transform="translate(543.42,349.18)" d="M2.31,0A2.31,2.31 0 1,1 0,-2.31A2.31,2.31 0 0,1 2.31,0Z" style="opacity: 0.6; stroke-width: 1px; fill: rgb(245, 230, 35); fill-opacity: 1; stroke: rgb(255, 255, 255); stroke-opacity: 1;"/><path class="point" transform="translate(528.08,87.76)" d="M12.46,0A12.46,12.46 0 1,1 0,-12.46A12.46,12.46 0 0,1 12.46,0Z" style="opacity: 0.6; stroke-width: 1px; fill: rgb(158, 217, 58); fill-opacity: 1; stroke: rgb(255, 255, 255); stroke-opacity: 1;"/><path class="point" transform="translate(317.92,169.53)" d="M1.03,0A1.03,1.03 0 1,1 0,-1.03A1.03,1.03 0 0,1 1.03,0Z" style="opacity: 0.6; stroke-width: 1px; fill: rgb(72, 27, 109); fill-opacity: 1; stroke: rgb(255, 255, 255); stroke-opacity: 1;"/><path class="point" transform="translate(448.89,94.96)" d="M0.52,0A0.52,0.52 0 1,1 0,-0.52A0.52,0.52 0 0,1 0.52,0Z" style="opacity: 0.6; stroke-width: 1px; fill: rgb(48, 106, 141); fill-opacity: 1; stroke: rgb(255, 255, 255); stroke-opacity: 1;"/><path class="point" transform="translate(346.07,330.65)" d="M3.94,0A3.94,3.94 0 1,1 0,-3.94A3.94,3.94 0 0,1 3.94,0Z" style="opacity: 0.6; stroke-width: 1px; fill: rgb(34, 141, 141); fill-opacity: 1; stroke: rgb(255, 255, 255); stroke-opacity: 1;"/><path class="point" transform="translate(131.74,369.37)" d="M2.79,0A2.79,2.79 0 1,1 0,-2.79A2.79,2.79 0 0,1 2.79,0Z" style="opacity: 0.6; stroke-width: 1px; fill: rgb(31, 159, 136); fill-opacity: 1; stroke: rgb(255, 255, 255); stroke-opacity: 1;"/><path class="point" transform="translate(156.33,160.04)" d="M6.6,0A6.6,6.6 0 1,1 0,-6.6A6.6,6.6 0 0,1 6.6,0Z" style="opacity: 0.6; stroke-width: 1px; fill: rgb(177, 221, 46); fill-opacity: 1; stroke: rgb(255, 255, 255); stroke-opacity: 1;"/><path class="point" transform="translate(60.19,232.27)" d="M2.96,0A2.96,2.96 0 1,1 0,-2.96A2.96,2.96 0 0,1 2.96,0Z" style="opacity: 0.6; stroke-width: 1px; fill: rgb(71, 42, 121); fill-opacity: 1; stroke: rgb(255, 255, 255); stroke-opacity: 1;"/><path class="point" transform="translate(405.05,210.67)" d="M8.1,0A8.1,8.1 0 1,1 0,-8.1A8.1,8.1 0 0,1 8.1,0Z" style="opacity: 0.6; stroke-width: 1px; fill: rgb(38, 129, 142); fill-opacity: 1; stroke: rgb(255, 255, 255); stroke-opacity: 1;"/><path class="point" transform="translate(188.34,329.85)" d="M1.37,0A1.37,1.37 0 1,1 0,-1.37A1.37,1.37 0 0,1 1.37,0Z" style="opacity: 0.6; stroke-width: 1px; fill: rgb(33, 146, 140); fill-opacity: 1; stroke: rgb(255, 255, 255); stroke-opacity: 1;"/><path class="point" transform="translate(236.76,295.24)" d="M13.29,0A13.29,13.29 0 1,1 0,-13.29A13.29,13.29 0 0,1 13.29,0Z" style="opacity: 0.6; stroke-width: 1px; fill: rgb(33, 144, 140); fill-opacity: 1; stroke: rgb(255, 255, 255); stroke-opacity: 1;"/><path class="point" transform="translate(528.84,311.66)" d="M6.42,0A6.42,6.42 0 1,1 0,-6.42A6.42,6.42 0 0,1 6.42,0Z" style="opacity: 0.6; stroke-width: 1px; fill: rgb(81, 196, 105); fill-opacity: 1; stroke: rgb(255, 255, 255); stroke-opacity: 1;"/><path class="point" transform="translate(345.59,215.88)" d="M11.61,0A11.61,11.61 0 1,1 0,-11.61A11.61,11.61 0 0,1 11.61,0Z" style="opacity: 0.6; stroke-width: 1px; fill: rgb(251, 231, 36); fill-opacity: 1; stroke: rgb(255, 255, 255); stroke-opacity: 1;"/><path class="point" transform="translate(250.11,45.98)" d="M14.02,0A14.02,14.02 0 1,1 0,-14.02A14.02,14.02 0 0,1 14.02,0Z" style="opacity: 0.6; stroke-width: 1px; fill: rgb(72, 22, 104); fill-opacity: 1; stroke: rgb(255, 255, 255); stroke-opacity: 1;"/><path class="point" transform="translate(511.11,299.57)" d="M12.3,0A12.3,12.3 0 1,1 0,-12.3A12.3,12.3 0 0,1 12.3,0Z" style="opacity: 0.6; stroke-width: 1px; fill: rgb(78, 194, 107); fill-opacity: 1; stroke: rgb(255, 255, 255); stroke-opacity: 1;"/><path class="point" transform="translate(357.57,236.78)" d="M8.59,0A8.59,8.59 0 1,1 0,-8.59A8.59,8.59 0 0,1 8.59,0Z" style="opacity: 0.6; stroke-width: 1px; fill: rgb(62, 188, 115); fill-opacity: 1; stroke: rgb(255, 255, 255); stroke-opacity: 1;"/><path class="point" transform="translate(357.85,260.99)" d="M10.59,0A10.59,10.59 0 1,1 0,-10.59A10.59,10.59 0 0,1 10.59,0Z" style="opacity: 0.6; stroke-width: 1px; fill: rgb(54, 92, 140); fill-opacity: 1; stroke: rgb(255, 255, 255); stroke-opacity: 1;"/><path class="point" transform="translate(355.85,359.79)" d="M5.51,0A5.51,5.51 0 1,1 0,-5.51A5.51,5.51 0 0,1 5.51,0Z" style="opacity: 0.6; stroke-width: 1px; fill: rgb(249, 230, 36); fill-opacity: 1; stroke: rgb(255, 255, 255); stroke-opacity: 1;"/><path class="point" transform="translate(431.47,258.16)" d="M4.16,0A4.16,4.16 0 1,1 0,-4.16A4.16,4.16 0 0,1 4.16,0Z" style="opacity: 0.6; stroke-width: 1px; fill: rgb(44, 177, 126); fill-opacity: 1; stroke: rgb(255, 255, 255); stroke-opacity: 1;"/><path class="point" transform="translate(263.7,144.39)" d="M1.93,0A1.93,1.93 0 1,1 0,-1.93A1.93,1.93 0 0,1 1.93,0Z" style="opacity: 0.6; stroke-width: 1px; fill: rgb(162, 218, 55); fill-opacity: 1; stroke: rgb(255, 255, 255); stroke-opacity: 1;"/><path class="point" transform="translate(189.16,34.87)" d="M11.1,0A11.1,11.1 0 1,1 0,-11.1A11.1,11.1 0 0,1 11.1,0Z" style="opacity: 0.6; stroke-width: 1px; fill: rgb(71, 41, 119); fill-opacity: 1; stroke: rgb(255, 255, 255); stroke-opacity: 1;"/><path class="point" transform="translate(504.98,50.73)" d="M0.98,0A0.98,0.98 0 1,1 0,-0.98A0.98,0.98 0 0,1 0.98,0Z" style="opacity: 0.6; stroke-width: 1px; fill: rgb(34, 165, 133); fill-opacity: 1; stroke: rgb(255, 255, 255); stroke-opacity: 1;"/><path class="point" transform="translate(362.18,120.14)" d="M4.37,0A4.37,4.37 0 1,1 0,-4.37A4.37,4.37 0 0,1 4.37,0Z" style="opacity: 0.6; stroke-width: 1px; fill: rgb(42, 119, 142); fill-opacity: 1; stroke: rgb(255, 255, 255); stroke-opacity: 1;"/><path class="point" transform="translate(216.74,144.17)" d="M4.42,0A4.42,4.42 0 1,1 0,-4.42A4.42,4.42 0 0,1 4.42,0Z" style="opacity: 0.6; stroke-width: 1px; fill: rgb(48, 179, 123); fill-opacity: 1; stroke: rgb(255, 255, 255); stroke-opacity: 1;"/><path class="point" transform="translate(203.09,372.74)" d="M12.6,0A12.6,12.6 0 1,1 0,-12.6A12.6,12.6 0 0,1 12.6,0Z" style="opacity: 0.6; stroke-width: 1px; fill: rgb(33, 146, 140); fill-opacity: 1; stroke: rgb(255, 255, 255); stroke-opacity: 1;"/><path class="point" transform="translate(168.9,384.59)" d="M0.45,0A0.45,0.45 0 1,1 0,-0.45A0.45,0.45 0 0,1 0.45,0Z" style="opacity: 0.6; stroke-width: 1px; fill: rgb(55, 90, 140); fill-opacity: 1; stroke: rgb(255, 255, 255); stroke-opacity: 1;"/><path class="point" transform="translate(580.3,248.34)" d="M2.39,0A2.39,2.39 0 1,1 0,-2.39A2.39,2.39 0 0,1 2.39,0Z" style="opacity: 0.6; stroke-width: 1px; fill: rgb(71, 35, 115); fill-opacity: 1; stroke: rgb(255, 255, 255); stroke-opacity: 1;"/><path class="point" transform="translate(99.2,51.41)" d="M10.36,0A10.36,10.36 0 1,1 0,-10.36A10.36,10.36 0 0,1 10.36,0Z" style="opacity: 0.6; stroke-width: 1px; fill: rgb(71, 39, 118); fill-opacity: 1; stroke: rgb(255, 255, 255); stroke-opacity: 1;"/><path class="point" transform="translate(421.95,311.34)" d="M8.58,0A8.58,8.58 0 1,1 0,-8.58A8.58,8.58 0 0,1 8.58,0Z" style="opacity: 0.6; stroke-width: 1px; fill: rgb(67, 60, 132); fill-opacity: 1; stroke: rgb(255, 255, 255); stroke-opacity: 1;"/><path class="point" transform="translate(512.54,43.11)" d="M7.49,0A7.49,7.49 0 1,1 0,-7.49A7.49,7.49 0 0,1 7.49,0Z" style="opacity: 0.6; stroke-width: 1px; fill: rgb(33, 163, 134); fill-opacity: 1; stroke: rgb(255, 255, 255); stroke-opacity: 1;"/><path class="point" transform="translate(155.51,361.15)" d="M3.2,0A3.2,3.2 0 1,1 0,-3.2A3.2,3.2 0 0,1 3.2,0Z" style="opacity: 0.6; stroke-width: 1px; fill: rgb(155, 216, 60); fill-opacity: 1; stroke: rgb(255, 255, 255); stroke-opacity: 1;"/><path class="point" transform="translate(528.22,149.85)" d="M2.93,0A2.93,2.93 0 1,1 0,-2.93A2.93,2.93 0 0,1 2.93,0Z" style="opacity: 0.6; stroke-width: 1px; fill: rgb(68, 55, 129); fill-opacity: 1; stroke: rgb(255, 255, 255); stroke-opacity: 1;"/><path class="point" transform="translate(317.34,193.89)" d="M5.44,0A5.44,5.44 0 1,1 0,-5.44A5.44,5.44 0 0,1 5.44,0Z" style="opacity: 0.6; stroke-width: 1px; fill: rgb(32, 150, 139); fill-opacity: 1; stroke: rgb(255, 255, 255); stroke-opacity: 1;"/><path class="point" transform="translate(480.15,178.93)" d="M4.21,0A4.21,4.21 0 1,1 0,-4.21A4.21,4.21 0 0,1 4.21,0Z" style="opacity: 0.6; stroke-width: 1px; fill: rgb(33, 146, 140); fill-opacity: 1; stroke: rgb(255, 255, 255); stroke-opacity: 1;"/><path class="point" transform="translate(153.38,148)" d="M4.39,0A4.39,4.39 0 1,1 0,-4.39A4.39,4.39 0 0,1 4.39,0Z" style="opacity: 0.6; stroke-width: 1px; fill: rgb(35, 166, 132); fill-opacity: 1; stroke: rgb(255, 255, 255); stroke-opacity: 1;"/><path class="point" transform="translate(162.34,347.29)" d="M9.87,0A9.87,9.87 0 1,1 0,-9.87A9.87,9.87 0 0,1 9.87,0Z" style="opacity: 0.6; stroke-width: 1px; fill: rgb(152, 216, 62); fill-opacity: 1; stroke: rgb(255, 255, 255); stroke-opacity: 1;"/><path class="point" transform="translate(76.98,155.83)" d="M1.97,0A1.97,1.97 0 1,1 0,-1.97A1.97,1.97 0 0,1 1.97,0Z" style="opacity: 0.6; stroke-width: 1px; fill: rgb(37, 170, 130); fill-opacity: 1; stroke: rgb(255, 255, 255); stroke-opacity: 1;"/><path class="point" transform="translate(338.78,132.88)" d="M6.5,0A6.5,6.5 0 1,1 0,-6.5A6.5,6.5 0 0,1 6.5,0Z" style="opacity: 0.6; stroke-width: 1px; fill: rgb(53, 96, 141); fill-opacity: 1; stroke: rgb(255, 255, 255); stroke-opacity: 1;"/><path class="point" transform="translate(358.06,176.09)" d="M10.72,0A10.72,10.72 0 1,1 0,-10.72A10.72,10.72 0 0,1 10.72,0Z" style="opacity: 0.6; stroke-width: 1px; fill: rgb(41, 175, 127); fill-opacity: 1; stroke: rgb(255, 255, 255); stroke-opacity: 1;"/></g><g class="text"/></g></g></g><g class="overplot"/><path class="xlines-above crisp" d="M0,0" style="fill: none;"/><path class="ylines-above crisp" d="M0,0" style="fill: none;"/><g class="overlines-above"/><g class="xaxislayer-above"><g class="xtick"><text text-anchor="middle" x="0" y="533" transform="translate(116.00999999999999,0)" style="font-family: 'Open Sans', verdana, arial, sans-serif; font-size: 12px; fill: rgb(68, 68, 68); fill-opacity: 1; white-space: pre;">0</text></g><g class="xtick"><text text-anchor="middle" x="0" y="533" transform="translate(228.78,0)" style="font-family: 'Open Sans', verdana, arial, sans-serif; font-size: 12px; fill: rgb(68, 68, 68); fill-opacity: 1; white-space: pre;">0.2</text></g><g class="xtick"><text text-anchor="middle" x="0" y="533" transform="translate(341.55,0)" style="font-family: 'Open Sans', verdana, arial, sans-serif; font-size: 12px; fill: rgb(68, 68, 68); fill-opacity: 1; white-space: pre;">0.4</text></g><g class="xtick"><text text-anchor="middle" x="0" y="533" transform="translate(454.32,0)" style="font-family: 'Open Sans', verdana, arial, sans-serif; font-size: 12px; fill: rgb(68, 68, 68); fill-opacity: 1; white-space: pre;">0.6</text></g><g class="xtick"><text text-anchor="middle" x="0" y="533" transform="translate(567.0899999999999,0)" style="font-family: 'Open Sans', verdana, arial, sans-serif; font-size: 12px; fill: rgb(68, 68, 68); fill-opacity: 1; white-space: pre;">0.8</text></g><g class="xtick"><text text-anchor="middle" x="0" y="533" transform="translate(679.86,0)" style="font-family: 'Open Sans', verdana, arial, sans-serif; font-size: 12px; fill: rgb(68, 68, 68); fill-opacity: 1; white-space: pre;">1</text></g></g><g class="yaxislayer-above"><g class="ytick"><text text-anchor="end" x="79" y="4.199999999999999" transform="translate(0,494.17)" style="font-family: 'Open Sans', verdana, arial, sans-serif; font-size: 12px; fill: rgb(68, 68, 68); fill-opacity: 1; white-space: pre;">0</text></g><g class="ytick"><text text-anchor="end" x="79" y="4.199999999999999" transform="translate(0,420.76)" style="font-family: 'Open Sans', verdana, arial, sans-serif; font-size: 12px; fill: rgb(68, 68, 68); fill-opacity: 1; white-space: pre;">0.2</text></g><g class="ytick"><text text-anchor="end" x="79" y="4.199999999999999" transform="translate(0,347.34000000000003)" style="font-family: 'Open Sans', verdana, arial, sans-serif; font-size: 12px; fill: rgb(68, 68, 68); fill-opacity: 1; white-space: pre;">0.4</text></g><g class="ytick"><text text-anchor="end" x="79" y="4.199999999999999" transform="translate(0,273.91999999999996)" style="font-family: 'Open Sans', verdana, arial, sans-serif; font-size: 12px; fill: rgb(68, 68, 68); fill-opacity: 1; white-space: pre;">0.6</text></g><g class="ytick"><text text-anchor="end" x="79" y="4.199999999999999" transform="translate(0,200.5)" style="font-family: 'Open Sans', verdana, arial, sans-serif; font-size: 12px; fill: rgb(68, 68, 68); fill-opacity: 1; white-space: pre;">0.8</text></g><g class="ytick"><text text-anchor="end" x="79" y="4.199999999999999" transform="translate(0,127.09)" style="font-family: 'Open Sans', verdana, arial, sans-serif; font-size: 12px; fill: rgb(68, 68, 68); fill-opacity: 1; white-space: pre;">1</text></g></g><g class="overaxes-above"/></g></g><g class="polarlayer"/><g class="ternarylayer"/><g class="geolayer"/><g class="pielayer"/><g class="glimages"/><defs id="topdefs-b2e0e0"><g class="clips"/></defs><g class="layer-above"><g class="imagelayer"/><g class="shapelayer"/></g><g class="infolayer"><g class="g-gtitle"/><g class="g-xtitle"/><g class="g-ytitle"/></g></svg>